<?xml version="1.0" encoding="utf-8"?>
<!-- Generator: Adobe Illustrator 23.0.3, SVG Export Plug-In . SVG Version: 6.00 Build 0)  -->
<svg version="1.1" id="レイヤー_1" xmlns="http://www.w3.org/2000/svg" xmlns:xlink="http://www.w3.org/1999/xlink" x="0px"
	 y="0px" viewBox="0 0 420 420" style="enable-background:new 0 0 420 420;" xml:space="preserve">
<style type="text/css">
	.st0{fill:none;stroke:#000000;stroke-width:13;stroke-miterlimit:10;}
	.st1{fill:none;stroke:#000000;stroke-width:13;stroke-linecap:round;stroke-miterlimit:10;}
	.st2{fill:none;stroke:#000000;stroke-width:13;stroke-linecap:round;stroke-linejoin:round;stroke-miterlimit:10;}
</style>
<g>
	<path class="st0" d="M135.25,247.5L135.25,247.5c-12.84,0-23.25-9.4-23.25-21v-55c0-11.6,10.41-21,23.25-21h0
		c12.84,0,23.25,9.4,23.25,21v55C158.5,238.1,148.09,247.5,135.25,247.5z"/>
	<path class="st1" d="M158.5,171.5l1-91c0,0,2-18.5,18.5-18.5c27.02,0,24.5,21.5,24.5,21.5V180"/>
	<path class="st1" d="M202,76.5v-28c0,0,3.5-16,22.5-16s21.5,16,21.5,16V181"/>
	<path class="st0" d="M246,70c0,0,4.5-16.5,22.5-16.5c22,0,23.5,17,23.5,17V223"/>
	<path class="st2" d="M238.5,301.5l13-22l-68-18c0,0-21.17-7.52-17-27c6-28,30-23,30-23l85,11c0,0,18.38,4.38,28,14
		c18,18,11,43,11,43l-20,75c0,0-5,19-18,26s-49,8-49,8h-78c0,0-21,1-41-19c-17-17-16-62-16-62l-1-57c0,0,0-34.5,14.5-51"/>
</g>
</svg>
